# xmcd CD database file
#
# Track frame offsets:
#	150
#	12765
#	25030
#	41282
#	56197
#	69222
#	82407
#	98547
#	114450
#	143355
#	156815
#
# Disc length: 2298 seconds
#
# Revision: 0
# Processed by: cddbd v1.5.1PL2 Copyright (c) Steve Scherf et al.
# Submitted via: CDex 1.51
#
DISCID=7d08f80b
DTITLE=Roomful of Blues - Let's Have a Party
DYEAR=2005
DGENRE=Blues
TTITLE0=It's Later Than You Think
TTITLE1=Ohie Dohie Stomp
TTITLE2=Travelin' Mood
TTITLE3=Let's Have a Party
TTITLE4=Jambalaya
TTITLE5=Look Out
TTITLE6=Stickin' With You
TTITLE7=The Chill Is On
TTITLE8=My Tears
TTITLE9=Big Horn
TTITLE10=Give and Take
EXTD=YEAR: 2005
EXTT0=
EXTT1=
EXTT2=
EXTT3=
EXTT4=
EXTT5=
EXTT6=
EXTT7=
EXTT8=
EXTT9=
EXTT10=
PLAYORDER=
